# xmcd
#
# Track frame offsets:
#	150
#	14482
#	30897
#	47914
#	62220
#	79210
#	90925
#	104322
#	121725
#	133005
#	150030
#	167247
#	186997
#	205702
#	221445
#
# Disc length: 3150
#
# Revision: 3
# Processed by: cddbd v1.5.1PL0 Copyright (c) Steve Scherf et al.
# Submitted via: audiograbber 1.83.01
# Normalized: r2:TDELIM( - )
#
DISCID=ba0c4c0f
DTITLE=Various Artist - SC7544
DYEAR=1900
DGENRE=Karaoke Country
TTITLE0=Hank Williams Jr - Jambalaya
TTITLE1=Eddie Rabbitt - I Love A Rainy Night
TTITLE2=Clint Black and Wynonna - Bad Goodbye, A (Duet)
TTITLE3=Hank Snow - I'm Movin On
TTITLE4=Don Williams - Tulsa Time
TTITLE5=Jim Reeves - He'll Have To Go
TTITLE6=Eddie Arnold - You Don't Know Me
TTITLE7=Marty Robbins - My Woman, My Woman , My Wife
TTITLE8=Buck Owens - Act Naturally
TTITLE9=Nitty Gritty Dirt Band, The - Mr Bojangles
TTITLE10=Jeannie Pruett - Satin Sheets
TTITLE11=Willie Nelson - All Of Me
TTITLE12=Ronnie Milsap - Any Day Now
TTITLE13=Terri Gibbs - Somebody's Knockin'
TTITLE14=Ray Price - Heartaches By The Numbers
EXTD=
EXTT0=
EXTT1=
EXTT2=
EXTT3=
EXTT4=
EXTT5=
EXTT6=
EXTT7=
EXTT8=
EXTT9=
EXTT10=
EXTT11=
EXTT12=
EXTT13=
EXTT14=
PLAYORDER=
